<svg width="16" height="16" viewBox="0 0 16 16" fill="none" xmlns="http://www.w3.org/2000/svg">
<path fill-rule="evenodd" clip-rule="evenodd" d="M8 0.000800037C3.5816 0.000800037 1.32459e-06 3.5824 1.32459e-06 8.0008C-0.000676915 9.1795 0.259116 10.3438 0.760801 11.4104L0.0168013 15.04C-0.00968752 15.1696 -0.003629 15.3037 0.0344345 15.4304C0.072498 15.5571 0.141379 15.6724 0.234911 15.7659C0.328443 15.8594 0.443707 15.9283 0.570386 15.9664C0.697066 16.0044 0.831206 16.0105 0.960801 15.984L4.5904 15.24C5.6256 15.728 6.7824 16 8 16C12.4184 16 16 12.4192 16 8C16 3.5824 12.4184 0 8 0" fill="#303030"/>
</svg>
