<svg width="458" height="652" viewBox="0 0 458 652" fill="none" xmlns="http://www.w3.org/2000/svg">
<rect width="264.426" height="123" transform="matrix(0.866025 -0.5 2.20305e-08 1 0 264.427)" fill="#8E8E8E"/>
<rect width="264.426" height="123" transform="matrix(-0.866025 -0.5 -2.20305e-08 1 458 264.427)" fill="#303030"/>
<path d="M50.9017 321.484L57.5528 311.164C59.4927 313.884 62.3333 314.804 66.8366 312.204C71.8942 309.284 75.289 303.484 75.289 297.644C75.289 292.204 71.6864 290.524 67.1137 293.164C64.0653 294.924 62.1254 297.324 60.4627 300.124L53.8116 300.524L53.8116 268.524L82.8408 251.764L82.8408 261.684L63.1647 273.044L63.1647 287.444C64.966 285.444 66.8366 283.884 69.3308 282.444C78.961 276.884 85.2656 280.844 85.2656 291.884C85.2656 303.324 78.0603 315.804 66.8366 322.284C58.9385 326.844 53.9502 325.564 50.9017 321.484ZM100.181 293.032L106.832 282.712C108.772 285.432 111.613 286.352 116.116 283.752C121.174 280.832 124.569 275.032 124.569 269.192C124.569 263.752 120.966 262.072 116.393 264.712C113.345 266.472 111.405 268.872 109.742 271.672L103.091 272.072L103.091 240.072L132.12 223.312L132.12 233.232L112.444 244.592L112.444 258.992C114.246 256.992 116.116 255.432 118.61 253.992C128.241 248.432 134.545 252.392 134.545 263.432C134.545 274.872 127.34 287.352 116.116 293.832C108.218 298.392 103.23 297.112 100.181 293.032ZM180.776 230.101L169.968 236.341L169.968 249.461L161.377 254.421L161.377 241.301L150.708 247.461L150.708 237.861L161.377 231.701L161.377 218.581L169.968 213.621L169.968 226.741L180.776 220.501L180.776 230.101Z" fill="#191919"/>
<path d="M229.5 519.927L0 386.927L229 255.427L458 387.427L229.5 519.927Z" fill="#121212"/>
</svg>
