<svg width="458" height="652" viewBox="0 0 458 652" fill="none" xmlns="http://www.w3.org/2000/svg">
<rect width="264.426" height="123" transform="matrix(0.866025 -0.5 2.20305e-08 1 0 264.427)" fill="#8E8E8E"/>
<rect width="264.426" height="123" transform="matrix(-0.866025 -0.5 -2.20305e-08 1 458 264.427)" fill="#303030"/>
<path d="M46.9837 329.586L65.6899 290.306C67.9762 285.546 69.8468 280.946 69.8468 276.226C69.8468 271.346 67.2834 269.466 62.9879 271.946C58.5538 274.506 55.5747 280.866 54.7433 287.746L46.2216 290.106C48.1615 275.626 55.644 266.186 63.4729 261.666C73.3802 255.946 79.8234 259.026 79.8234 269.506C79.8234 276.546 76.7057 283.946 73.0338 291.426L62.3644 313.266L62.3644 313.586L79.6849 303.586L79.6849 313.586L46.9837 332.466L46.9837 329.586ZM99.0395 302.412L99.0394 242.412L136.729 220.652L136.729 280.652L99.0395 302.412ZM126.891 276.332L126.891 236.252L108.877 246.652L108.877 286.732L126.891 276.332ZM186.115 227.019L175.307 233.259L175.307 246.379L166.716 251.339L166.716 238.219L156.046 244.379L156.046 234.779L166.716 228.619L166.716 215.499L175.307 210.539L175.307 223.659L186.115 217.419L186.115 227.019Z" fill="#191919"/>
<path d="M229.5 519.927L0 386.927L229 255.427L458 387.427L229.5 519.927Z" fill="#121212"/>
</svg>
