<svg width="458" height="652" viewBox="0 0 458 652" fill="none" xmlns="http://www.w3.org/2000/svg">
<rect width="264.426" height="123" transform="matrix(0.866025 -0.5 2.20305e-08 1 0 264.427)" fill="#8E8E8E"/>
<rect width="264.426" height="123" transform="matrix(-0.866025 -0.5 -2.20305e-08 1 458 264.427)" fill="#303030"/>
<path d="M48.0376 306.737L37.2296 312.977L37.2296 326.097L28.6386 331.058L28.6386 317.938L17.9692 324.098L17.9692 314.498L28.6386 308.337L28.6386 295.217L37.2296 290.257L37.2296 303.377L48.0376 297.137L48.0376 306.737ZM97.3691 286.016C97.3691 296.576 90.0252 308.896 79.4943 314.976C71.3191 319.696 66.4 318.296 63.4209 313.296L70.4877 303.456C72.3583 306.376 74.8524 307.496 79.4251 304.856C84.2748 302.056 87.4618 296.376 87.4618 291.336C87.4618 286.136 84.5519 283.896 79.2172 286.976C76.4459 288.576 74.991 290.056 73.3282 292.136L68.7556 287.576L83.3741 261.376L65.6379 271.616L65.6379 261.696L94.8057 244.856L94.8057 254.776L81.5728 277.696L81.5728 277.776C82.0578 277.416 82.4735 277.176 82.612 277.096C92.1037 271.616 97.3691 276.336 97.3691 286.016ZM121.578 289.399L121.578 263.799L136.058 230.959L111.81 244.959L111.81 235.039L146.658 214.919L146.658 224.759L131.416 259.959L131.416 283.719L121.578 289.399ZM172.345 231.688C165.278 235.768 160.637 233.328 160.429 225.928C160.359 223.408 160.359 220.688 160.429 218.168C160.637 210.688 165.278 202.968 172.345 198.888C179.481 194.768 183.985 197.208 184.192 204.448C184.331 206.848 184.331 209.568 184.192 212.208C183.985 219.848 179.481 227.568 172.345 231.688ZM168.881 262.088L200.751 183.688L208.095 179.448L176.225 257.848L168.881 262.088ZM172.345 205.688C169.435 207.368 167.703 210.368 167.565 213.408C167.426 216.448 167.426 219.568 167.565 222.528C167.703 225.408 169.435 226.488 172.345 224.808C175.324 223.088 177.056 220.008 177.195 216.968C177.334 213.848 177.334 210.728 177.195 207.848C177.056 204.968 175.324 203.968 172.345 205.688ZM204.561 242.768C197.495 246.848 192.853 244.408 192.645 237.008C192.576 234.488 192.576 231.768 192.645 229.248C192.853 221.768 197.495 214.048 204.561 209.968C211.697 205.848 216.201 208.288 216.409 215.528C216.547 217.928 216.547 220.648 216.409 223.288C216.201 230.928 211.697 238.648 204.561 242.768ZM204.561 216.768C201.652 218.448 199.92 221.448 199.781 224.488C199.642 227.528 199.642 230.648 199.781 233.608C199.92 236.488 201.652 237.568 204.561 235.888C207.541 234.168 209.273 231.088 209.411 228.048C209.55 224.928 209.55 221.808 209.411 218.928C209.273 216.048 207.541 215.048 204.561 216.768Z" fill="#191919"/>
<path d="M229.5 519.927L0 386.927L229 255.427L458 387.427L229.5 519.927Z" fill="#121212"/>
</svg>
