<svg width="458" height="652" viewBox="0 0 458 652" fill="none" xmlns="http://www.w3.org/2000/svg">
<metadata><?xpacket begin="﻿" id="W5M0MpCehiHzreSzNTczkc9d"?>
<x:xmpmeta xmlns:x="adobe:ns:meta/" x:xmptk="Adobe XMP Core 9.1-c002 165.59ab891, 2024/09/18-09:57:10        ">
   <rdf:RDF xmlns:rdf="http://www.w3.org/1999/02/22-rdf-syntax-ns#">
      <rdf:Description rdf:about=""
            xmlns:xmp="http://ns.adobe.com/xap/1.0/"
            xmlns:xmpMM="http://ns.adobe.com/xap/1.0/mm/"
            xmlns:stEvt="http://ns.adobe.com/xap/1.0/sType/ResourceEvent#">
         <xmp:Rating>1</xmp:Rating>
         <xmp:MetadataDate>2025-01-09T21:52:16+01:00</xmp:MetadataDate>
         <xmpMM:InstanceID>xmp.iid:8631df3a-4586-214e-a45f-37c46292bcf1</xmpMM:InstanceID>
         <xmpMM:DocumentID>xmp.did:8631df3a-4586-214e-a45f-37c46292bcf1</xmpMM:DocumentID>
         <xmpMM:OriginalDocumentID>xmp.did:8631df3a-4586-214e-a45f-37c46292bcf1</xmpMM:OriginalDocumentID>
         <xmpMM:History>
            <rdf:Seq>
               <rdf:li>
                  <rdf:Description>
                     <stEvt:action>saved</stEvt:action>
                     <stEvt:instanceID>xmp.iid:8631df3a-4586-214e-a45f-37c46292bcf1</stEvt:instanceID>
                     <stEvt:when>2025-01-09T21:52:16+01:00</stEvt:when>
                     <stEvt:softwareAgent>Adobe Bridge 2025</stEvt:softwareAgent>
                     <stEvt:changed>/metadata</stEvt:changed>
                  </rdf:Description>
               </rdf:li>
            </rdf:Seq>
         </xmpMM:History>
      </rdf:Description>
   </rdf:RDF>
</x:xmpmeta>
                                                                                                    
                                                                                                    
                                                                                                    
                                                                                                    
                                                                                                    
                                                                                                    
                                                                                                    
                                                                                                    
                                                                                                    
                                                                                                    
                                                                                                    
                                                                                                    
                                                                                                    
                                                                                                    
                                                                                                    
                                                                                                    
                                                                                                    
                                                                                                    
                                                                                                    
                                                                                                    
                           
<?xpacket end="w"?></metadata>
<rect width="264.426" height="123" transform="matrix(0.866025 -0.5 2.20305e-08 1 3.05176e-05 264.427)" fill="#8E8E8E"/>
<rect width="264.426" height="123" transform="matrix(-0.866025 -0.5 -2.20305e-08 1 458 264.427)" fill="#303030"/>
<path d="M46.4747 307.64L35.6667 313.88L35.6667 327L27.0757 331.96L27.0757 318.84L16.4063 325L16.4063 315.4L27.0757 309.24L27.0757 296.12L35.6667 291.16L35.6667 304.28L46.4747 298.04L46.4747 307.64ZM84.0283 311.078L84.0283 296.838L61.7887 309.678L69.4098 259.518L78.555 254.238L72.666 293.558L84.0283 286.998L84.0283 267.078L93.7278 261.478L93.7278 281.398L100.24 277.638L100.24 287.478L93.7278 291.238L93.7278 305.478L84.0283 311.078ZM116 292.62L116 267.98L131.45 250.02C135.884 244.9 137.616 240.94 137.616 236.38C137.616 232.14 135.329 230.18 131.103 232.62C126.738 235.14 123.967 240.74 123.482 247.18L114.683 250.1C115.861 236.3 123.69 226.9 131.519 222.38C140.941 216.94 147.592 220.14 147.592 230.54C147.592 239.18 143.297 247.02 136.161 255.38L125.838 267.42L125.838 276.94L146.969 264.74L146.969 274.74L116 292.62ZM174.774 230.286C167.707 234.366 163.066 231.926 162.858 224.526C162.788 222.006 162.788 219.286 162.858 216.766C163.066 209.286 167.707 201.566 174.774 197.486C181.91 193.366 186.414 195.806 186.621 203.046C186.76 205.446 186.76 208.166 186.621 210.806C186.414 218.446 181.91 226.166 174.774 230.286ZM171.31 260.686L203.18 182.286L210.524 178.046L178.654 256.446L171.31 260.686ZM174.774 204.286C171.864 205.966 170.132 208.966 169.994 212.006C169.855 215.046 169.855 218.166 169.994 221.126C170.132 224.006 171.864 225.086 174.774 223.406C177.753 221.686 179.485 218.606 179.624 215.566C179.763 212.446 179.763 209.326 179.624 206.446C179.485 203.566 177.753 202.566 174.774 204.286ZM206.99 241.366C199.924 245.446 195.282 243.006 195.074 235.606C195.005 233.086 195.005 230.366 195.074 227.846C195.282 220.366 199.924 212.646 206.99 208.566C214.126 204.446 218.63 206.886 218.838 214.126C218.976 216.526 218.976 219.246 218.838 221.886C218.63 229.526 214.126 237.246 206.99 241.366ZM206.99 215.366C204.081 217.046 202.348 220.046 202.21 223.086C202.071 226.126 202.071 229.246 202.21 232.206C202.348 235.086 204.081 236.166 206.99 234.486C209.969 232.766 211.702 229.686 211.84 226.646C211.979 223.526 211.979 220.406 211.84 217.526C211.702 214.646 209.969 213.646 206.99 215.366Z" fill="#191919"/>
<path d="M229.5 519.927L3.05176e-05 386.927L229 255.427L458 387.427L229.5 519.927Z" fill="#121212"/>
</svg>
