<svg width="12" height="23" viewBox="0 0 12 23" fill="none" xmlns="http://www.w3.org/2000/svg">
<path d="M7.42951 17.5946C7.42951 19.2905 7.42951 20.8803 7.42951 22.5762C7.42951 23.0001 7.42951 23.0001 7.00554 23.0001C5.94564 23.0001 4.77974 23.0001 3.71983 23.0001C3.40186 23.0001 3.29587 22.8941 3.29587 22.5762C3.29587 19.2905 3.29587 16.0047 3.29587 12.825C3.29587 12.719 3.29587 12.613 3.29587 12.507C3.29587 12.2951 3.18988 12.1891 2.97789 12.1891C2.23596 12.1891 1.49402 12.1891 0.752088 12.1891C0.434116 12.1891 0.328125 12.0831 0.328125 11.7651C0.328125 10.7052 0.328125 9.64529 0.328125 8.58538C0.328125 8.3734 0.434116 8.26741 0.646097 8.26741C1.38803 8.26741 2.12997 8.26741 2.76591 8.26741C3.08389 8.26741 3.18988 8.16142 3.18988 7.84345C3.18988 6.78354 3.18988 5.82962 3.18988 4.76972C3.18988 2.43792 4.67375 0.636075 6.89955 0.106121C8.17144 -0.10586 9.33734 0.000130508 10.5032 0.000130508C10.8212 0.000130508 11.1392 0.000130506 11.4572 0.106121C11.5631 0.106121 11.6691 0.212112 11.6691 0.318103C11.6691 1.37801 11.6691 2.43792 11.5631 3.49783C11.5631 3.70981 11.3512 3.70981 11.2452 3.70981C10.5032 3.70981 9.8673 3.70981 9.12536 3.70981C8.91338 3.70981 8.59541 3.70981 8.38342 3.8158C7.74748 3.92179 7.42951 4.34575 7.42951 5.19368C7.42951 6.1476 7.42951 7.10151 7.42951 8.05543C7.42951 8.26741 7.5355 8.3734 7.74748 8.3734C8.91338 8.3734 9.97329 8.3734 11.1392 8.3734C11.5631 8.3734 11.5631 8.3734 11.5631 8.79736C11.5631 9.75128 11.4572 10.8112 11.4572 11.7651C11.4572 12.1891 11.3512 12.1891 11.0332 12.1891C9.97329 12.1891 8.80739 12.1891 7.74748 12.1891C7.5355 12.1891 7.42951 12.2951 7.42951 12.507C7.42951 14.2029 7.42951 15.8987 7.42951 17.5946Z" fill="#D9D9D9"/>
</svg>
