<svg width="13" height="23" viewBox="0 0 13 23" fill="none" xmlns="http://www.w3.org/2000/svg">
<path d="M8.0672 17.5946C8.0672 19.2905 8.0672 20.8803 8.0672 22.5762C8.0672 23.0001 8.0672 23.0001 7.64324 23.0001C6.58333 23.0001 5.41743 23.0001 4.35753 23.0001C4.03955 23.0001 3.93356 22.8941 3.93356 22.5762C3.93356 19.2905 3.93356 16.0047 3.93356 12.825C3.93356 12.719 3.93356 12.613 3.93356 12.507C3.93356 12.2951 3.82757 12.1891 3.61559 12.1891C2.87365 12.1891 2.13172 12.1891 1.38978 12.1891C1.07181 12.1891 0.96582 12.0831 0.96582 11.7651C0.96582 10.7052 0.96582 9.64529 0.96582 8.58538C0.96582 8.3734 1.07181 8.26741 1.28379 8.26741C2.02573 8.26741 2.76766 8.26741 3.40361 8.26741C3.72158 8.26741 3.82757 8.16142 3.82757 7.84345C3.82757 6.78354 3.82757 5.82962 3.82757 4.76972C3.82757 2.43792 5.31144 0.636075 7.53725 0.106121C8.80914 -0.10586 9.97504 0.000130508 11.1409 0.000130508C11.4589 0.000130508 11.7769 0.000130504 12.0949 0.106121C12.2008 0.106121 12.3068 0.212112 12.3068 0.318103C12.3068 1.37801 12.3068 2.43792 12.2008 3.49783C12.2008 3.70981 11.9889 3.70981 11.8829 3.70981C11.1409 3.70981 10.505 3.70981 9.76305 3.70981C9.55107 3.70981 9.2331 3.70981 9.02112 3.8158C8.38517 3.92179 8.0672 4.34575 8.0672 5.19368C8.0672 6.1476 8.0672 7.10151 8.0672 8.05543C8.0672 8.26741 8.17319 8.3734 8.38517 8.3734C9.55107 8.3734 10.611 8.3734 11.7769 8.3734C12.2008 8.3734 12.2008 8.3734 12.2008 8.79737C12.2008 9.75128 12.0949 10.8112 12.0949 11.7651C12.0949 12.1891 11.9889 12.1891 11.6709 12.1891C10.611 12.1891 9.44508 12.1891 8.38517 12.1891C8.17319 12.1891 8.0672 12.2951 8.0672 12.507C8.0672 14.2029 8.0672 15.8987 8.0672 17.5946Z" fill="white"/>
</svg>
