<svg width="14" height="16" viewBox="0 0 14 16" fill="none" xmlns="http://www.w3.org/2000/svg">
<path fill-rule="evenodd" clip-rule="evenodd" d="M5.2786 0.143636C5.43081 0.0528305 5.6041 0.00337399 5.78131 0.000166602C5.95852 -0.00304079 6.13349 0.0401123 6.28888 0.12535C10.8455 2.24192 13.4249 6.63735 13.266 10.3128C13.1975 11.8568 12.6455 13.2865 11.5746 14.3299C10.5026 15.3745 8.96317 15.9848 7.0146 15.9882C6.22708 16.0369 5.43775 15.9279 4.69292 15.6676C3.94809 15.4072 3.26274 15.0007 2.67707 14.472C2.09139 13.9433 1.61718 13.3029 1.28225 12.5885C0.947323 11.8741 0.758411 11.1 0.726597 10.3116V10.3025C0.703334 9.38858 0.930799 8.48574 1.38431 7.69195C1.83782 6.89815 2.50006 6.24371 3.29917 5.79964C3.36859 5.7611 3.44527 5.73745 3.52434 5.7302C3.60341 5.72295 3.68312 5.73225 3.75839 5.75752C3.83366 5.78279 3.90284 5.82347 3.96151 5.87696C4.02018 5.93045 4.06707 5.99559 4.09917 6.06821C4.3772 6.69909 4.7671 7.27446 5.25002 7.76649C5.8146 7.02935 6.07517 6.07735 6.06717 5.03049C6.05802 3.78478 5.66717 2.44878 5.01117 1.31164C4.89723 1.11985 4.86144 0.891586 4.91123 0.674138C4.96102 0.456689 5.09256 0.266733 5.2786 0.143636Z" fill="#303030"/>
</svg>
