<svg width="23" height="23" viewBox="0 0 23 23" fill="none" xmlns="http://www.w3.org/2000/svg">
<path d="M19.8641 0.5H3.13594C1.71659 0.5 0.5 1.71659 0.5 3.13594V19.9654C0.5 21.3848 1.71659 22.6014 3.13594 22.6014H19.8641C21.2834 22.6014 22.5 21.3848 22.5 19.9654V3.13594C22.5 1.71659 21.3848 0.5 19.8641 0.5ZM15.8088 3.64286C15.8088 3.33871 16.1129 3.03456 16.4171 3.03456H19.3571C19.6613 3.03456 19.9654 3.33871 19.9654 3.64286V6.58295C19.9654 6.8871 19.6613 7.19124 19.3571 7.19124H16.4171C16.1129 7.19124 15.8088 6.8871 15.8088 6.58295V3.64286ZM11.5507 7.29263C13.8825 7.29263 15.8088 9.21889 15.8088 11.5507C15.8088 13.8825 13.8825 15.8088 11.5507 15.8088C9.21889 15.8088 7.29263 13.8825 7.29263 11.5507C7.29263 9.21889 9.21889 7.29263 11.5507 7.29263ZM20.0668 19.3571C20.0668 19.6613 19.7627 19.9654 19.4585 19.9654H3.64286C3.33871 19.9654 3.03456 19.6613 3.03456 19.3571V9.72581H5.06221C4.85945 10.3341 4.85945 10.841 4.85945 11.4493C4.85945 15.0991 7.90092 18.1406 11.5507 18.1406C15.2005 18.1406 18.2419 15.0991 18.2419 11.4493C18.2419 10.841 18.1406 10.2327 18.0392 9.72581H20.0668V19.3571Z" fill="white"/>
</svg>
