<svg width="23" height="22" viewBox="0 0 23 22" fill="none" xmlns="http://www.w3.org/2000/svg">
<path d="M19.8641 0H3.13594C1.71659 0 0.5 1.21659 0.5 2.63594V19.4654C0.5 20.8848 1.71659 22.1014 3.13594 22.1014H19.8641C21.2834 22.1014 22.5 20.8848 22.5 19.4654V2.63594C22.5 1.21659 21.3848 0 19.8641 0ZM15.8088 3.14286C15.8088 2.83871 16.1129 2.53456 16.4171 2.53456H19.3571C19.6613 2.53456 19.9654 2.83871 19.9654 3.14286V6.08295C19.9654 6.3871 19.6613 6.69124 19.3571 6.69124H16.4171C16.1129 6.69124 15.8088 6.3871 15.8088 6.08295V3.14286ZM11.5507 6.79263C13.8825 6.79263 15.8088 8.71889 15.8088 11.0507C15.8088 13.3825 13.8825 15.3088 11.5507 15.3088C9.21889 15.3088 7.29263 13.3825 7.29263 11.0507C7.29263 8.71889 9.21889 6.79263 11.5507 6.79263ZM20.0668 18.8571C20.0668 19.1613 19.7627 19.4654 19.4585 19.4654H3.64286C3.33871 19.4654 3.03456 19.1613 3.03456 18.8571V9.22581H5.06221C4.85945 9.8341 4.85945 10.341 4.85945 10.9493C4.85945 14.5991 7.90092 17.6406 11.5507 17.6406C15.2005 17.6406 18.2419 14.5991 18.2419 10.9493C18.2419 10.341 18.1406 9.73272 18.0392 9.22581H20.0668V18.8571Z" fill="#D9D9D9"/>
</svg>
