<svg width="88" height="16" viewBox="0 0 88 16" fill="none" xmlns="http://www.w3.org/2000/svg">
<path d="M0 5.18392H4.29062V6.10306H1.01415V15.1771H0V5.18392Z" fill="white"/>
<path d="M5.04742 10.1707C5.04742 7.15909 7.23174 4.87102 10.2547 4.87102C12.4 4.87102 14.0772 6.06394 14.5453 7.6871H14.5843C14.5648 7.33509 14.5453 7.00264 14.5453 6.49418V5.18392H15.4814V15.1771H14.5453V13.7104C14.5453 13.2606 14.5648 12.9086 14.5843 12.537H14.5453C14.0577 14.2971 12.3415 15.4704 10.2352 15.49C7.15373 15.49 5.04742 13.2019 5.04742 10.1707ZM10.2937 14.5513C12.7705 14.5513 14.5258 12.6739 14.5258 10.1707C14.5258 7.66755 12.7705 5.79016 10.2937 5.79016C7.89484 5.79016 6.06157 7.66755 6.06157 10.1707C6.06157 12.6739 7.89484 14.5513 10.2937 14.5513Z" fill="white"/>
<path d="M18.0176 10.1707C18.0176 7.13953 20.1629 4.87102 23.2053 4.87102C25.0971 4.87102 26.8914 5.86838 27.4764 7.53065H27.535C27.4959 7.1982 27.4764 6.86574 27.4764 6.35729V0.51H28.4906V15.1771H27.535V13.7886C27.535 13.3193 27.5545 12.9673 27.5935 12.6152H27.535C26.9304 14.4535 25.1751 15.49 23.2053 15.49C20.1434 15.49 18.0176 13.2215 18.0176 10.1707ZM23.3028 14.5513C25.7602 14.5513 27.5155 12.6739 27.5155 10.1707C27.5155 7.66755 25.7602 5.79016 23.3028 5.79016C20.8845 5.79016 19.0707 7.66755 19.0707 10.1707C19.0707 12.6739 20.8845 14.5513 23.3028 14.5513Z" fill="white"/>
<path d="M31.0068 10.1707C31.0068 7.15909 33.1911 4.87102 36.214 4.87102C38.3593 4.87102 40.0366 6.06394 40.5046 7.6871H40.5436C40.5241 7.33509 40.5046 7.00264 40.5046 6.49418V5.18392H41.4408V15.1771H40.5046V13.7104C40.5046 13.2606 40.5241 12.9086 40.5436 12.537H40.5046C40.0171 14.2971 38.3008 15.4704 36.1945 15.49C33.1131 15.49 31.0068 13.2019 31.0068 10.1707ZM36.253 14.5513C38.7299 14.5513 40.4851 12.6739 40.4851 10.1707C40.4851 7.66755 38.7299 5.79016 36.253 5.79016C33.8542 5.79016 32.0209 7.66755 32.0209 10.1707C32.0209 12.6739 33.8542 14.5513 36.253 14.5513Z" fill="white"/>
<path d="M44.7765 5.18392H49.0671V6.10306H45.7907V15.1771H44.7765V5.18392Z" fill="white"/>
<path d="M0 5.18392H4.29062V6.10306H1.01415V15.1771H0V5.18392Z" fill="white"/>
<path d="M5.04742 10.1707C5.04742 7.15909 7.23174 4.87102 10.2547 4.87102C12.4 4.87102 14.0772 6.06394 14.5453 7.6871H14.5843C14.5648 7.33509 14.5453 7.00264 14.5453 6.49418V5.18392H15.4814V15.1771H14.5453V13.7104C14.5453 13.2606 14.5648 12.9086 14.5843 12.537H14.5453C14.0577 14.2971 12.3415 15.4704 10.2352 15.49C7.15373 15.49 5.04742 13.2019 5.04742 10.1707ZM10.2937 14.5513C12.7705 14.5513 14.5258 12.6739 14.5258 10.1707C14.5258 7.66755 12.7705 5.79016 10.2937 5.79016C7.89484 5.79016 6.06157 7.66755 6.06157 10.1707C6.06157 12.6739 7.89484 14.5513 10.2937 14.5513Z" fill="white"/>
<path d="M18.0176 10.1707C18.0176 7.13953 20.1629 4.87102 23.2053 4.87102C25.0971 4.87102 26.8914 5.86838 27.4764 7.53065H27.535C27.4959 7.1982 27.4764 6.86574 27.4764 6.35729V0.51H28.4906V15.1771H27.535V13.7886C27.535 13.3193 27.5545 12.9673 27.5935 12.6152H27.535C26.9304 14.4535 25.1751 15.49 23.2053 15.49C20.1434 15.49 18.0176 13.2215 18.0176 10.1707ZM23.3028 14.5513C25.7602 14.5513 27.5155 12.6739 27.5155 10.1707C27.5155 7.66755 25.7602 5.79016 23.3028 5.79016C20.8845 5.79016 19.0707 7.66755 19.0707 10.1707C19.0707 12.6739 20.8845 14.5513 23.3028 14.5513Z" fill="white"/>
<path d="M31.0068 10.1707C31.0068 7.15909 33.1911 4.87102 36.214 4.87102C38.3593 4.87102 40.0366 6.06394 40.5046 7.6871H40.5436C40.5241 7.33509 40.5046 7.00264 40.5046 6.49418V5.18392H41.4408V15.1771H40.5046V13.7104C40.5046 13.2606 40.5241 12.9086 40.5436 12.537H40.5046C40.0171 14.2971 38.3008 15.4704 36.1945 15.49C33.1131 15.49 31.0068 13.2019 31.0068 10.1707ZM36.253 14.5513C38.7299 14.5513 40.4851 12.6739 40.4851 10.1707C40.4851 7.66755 38.7299 5.79016 36.253 5.79016C33.8542 5.79016 32.0209 7.66755 32.0209 10.1707C32.0209 12.6739 33.8542 14.5513 36.253 14.5513Z" fill="white"/>
<path d="M44.7765 5.18392H49.0671V6.10306H45.7907V15.1771H44.7765V5.18392Z" fill="white"/>
<path d="M54.8757 15.1843H58.8173V8.29715H60.591V15.1843H64.5129V4.95142H58.8173V0.51H54.8757V15.1843Z" fill="white"/>
<path d="M75.9332 15.1843H66.3551V4.95142H70.2967V11.7994H71.9916V4.95142H75.9332V15.1843Z" fill="white"/>
<path fill-rule="evenodd" clip-rule="evenodd" d="M77.7971 15.1843H87.4343V4.95142H81.7387V0.51H77.7971V15.1843ZM83.5204 8.30569H81.6728V11.6685H83.5204V8.30569Z" fill="white"/>
</svg>
