<svg width="24" height="24" viewBox="0 0 24 24" fill="none" xmlns="http://www.w3.org/2000/svg">
<path d="M13.0909 2.18182C12.0436 2.18182 11.04 2.33455 10.0909 2.60727C9.60567 1.81238 8.92461 1.15528 8.11287 0.698789C7.30112 0.242302 6.38584 0.00170297 5.45455 0C2.44364 0 0 2.44364 0 5.45455C0 7.41818 1.04727 9.13091 2.60727 10.0909C2.33455 11.04 2.18182 12.0436 2.18182 13.0909C2.18182 19.1127 7.06909 24 13.0909 24C19.1127 24 24 19.1127 24 13.0909C24 7.06909 19.1127 2.18182 13.0909 2.18182ZM13.0909 21.8182C8.28 21.8182 4.36364 17.9018 4.36364 13.0909C4.36364 13.0364 4.37455 12.9818 4.37455 12.9273C7.21091 11.8582 9.48 9.66546 10.6364 6.87273C11.9076 8.44989 13.5952 9.63945 15.5078 10.3066C17.4205 10.9737 19.4818 11.0917 21.4582 10.6473C21.6873 11.4218 21.8182 12.24 21.8182 13.0909C21.8182 17.9018 17.9018 21.8182 13.0909 21.8182Z" fill="#D9D9D9"/>
<path d="M9.81818 15.5455C10.5713 15.5455 11.1818 14.9349 11.1818 14.1818C11.1818 13.4287 10.5713 12.8182 9.81818 12.8182C9.06507 12.8182 8.45455 13.4287 8.45455 14.1818C8.45455 14.9349 9.06507 15.5455 9.81818 15.5455Z" fill="#D9D9D9"/>
<path d="M16.3636 15.5455C17.1168 15.5455 17.7273 14.9349 17.7273 14.1818C17.7273 13.4287 17.1168 12.8182 16.3636 12.8182C15.6105 12.8182 15 13.4287 15 14.1818C15 14.9349 15.6105 15.5455 16.3636 15.5455Z" fill="#D9D9D9"/>
</svg>
