<svg width="222" height="167" viewBox="0 0 222 167" fill="none" xmlns="http://www.w3.org/2000/svg">
<path d="M122.16 111C122.16 88 133.16 69.5 143.16 50L168.66 0L210.66 12.5L188.66 58.5C187.66 60.5 186.66 63 185.66 65C206.16 70.5 221.66 89.5 221.66 112.5C221.66 130.619 211.753 146.485 197.076 154.964C189.882 159.12 181.542 161.5 172.66 161.5C142.66 161.5 122.16 140 122.16 111ZM8.66016 111C8.66016 88 19.6602 69.5 29.6602 50L55.1602 0L97.1602 12.5L75.1602 58.5C74.1602 60.5 73.1602 63 72.1602 65C92.6602 70.5 108.16 89.5 108.16 112.5C108.16 130.619 98.2532 146.485 83.5765 154.964C76.3821 159.12 68.0417 161.5 59.1602 161.5C29.1602 161.5 8.66016 140 8.66016 111Z" fill="#759C00"/>
<path d="M0 116C0 145 20.5 166.5 50.5 166.5L59.1602 161.5C29.1602 161.5 8.66016 140 8.66016 111L0 116Z" fill="#759C00"/>
<path d="M21 55C11 74.5 0 93 0 116L8.66016 111C8.66016 88 19.6602 69.5 29.6602 50L21 55Z" fill="#759C00"/>
<path d="M50.5 166.5C59.3815 166.5 67.722 164.119 74.9163 159.963L83.5568 154.975C76.3669 159.124 68.0335 161.5 59.1602 161.5L50.5 166.5Z" fill="#759C00"/>
<path d="M74.9163 159.963C89.5931 151.485 99.4999 135.619 99.4999 117.5L108.16 112.5C108.16 130.619 98.2532 146.485 83.5765 154.964L74.9163 159.963Z" fill="#759C00"/>
<path d="M46.5 5L21 55L29.6602 50L55.1602 0L46.5 5Z" fill="#759C00"/>
<path d="M63.5 70C64.5 68 65.5 65.5 66.5 63.5L75.1602 58.5C74.1602 60.5 73.1602 63 72.1602 65L63.5 70Z" fill="#759C00"/>
<path d="M99.4999 117.5C99.4999 94.5 84 75.5 63.5 70L72.1602 65C92.6602 70.5 108.16 89.5 108.16 112.5L99.4999 117.5Z" fill="#759C00"/>
<path d="M66.5 63.5L88.5 17.5L97.1602 12.5L75.1602 58.5L66.5 63.5Z" fill="#759C00"/>
<path d="M113.5 116C113.5 145 134 166.5 164 166.5L172.66 161.5C142.66 161.5 122.16 140 122.16 111L113.5 116Z" fill="#759C00"/>
<path d="M88.5 17.5L46.5 5L55.1602 0L97.1602 12.5L88.5 17.5Z" fill="#759C00"/>
<path d="M134.5 55C124.5 74.5 113.5 93 113.5 116L122.16 111C122.16 88 133.16 69.5 143.16 50L134.5 55Z" fill="#759C00"/>
<path d="M164 166.5C172.882 166.5 181.222 164.119 188.416 159.963L197.057 154.975C189.867 159.124 181.534 161.5 172.66 161.5L164 166.5Z" fill="#759C00"/>
<path d="M188.416 159.963C203.093 151.485 213 135.619 213 117.5L221.66 112.5C221.66 130.619 211.753 146.485 197.076 154.964L188.416 159.963Z" fill="#759C00"/>
<path d="M160 5L134.5 55L143.16 50L168.66 0L160 5Z" fill="#759C00"/>
<path d="M177 70C178 68 179 65.5 180 63.5L188.66 58.5C187.66 60.5 186.66 63 185.66 65L177 70Z" fill="#759C00"/>
<path d="M213 117.5C213 94.5 197.5 75.5 177 70L185.66 65C206.16 70.5 221.66 89.5 221.66 112.5L213 117.5Z" fill="#759C00"/>
<path d="M180 63.5L202 17.5L210.66 12.5L188.66 58.5L180 63.5Z" fill="#759C00"/>
<path d="M202 17.5L160 5L168.66 0L210.66 12.5L202 17.5Z" fill="#759C00"/>
<path d="M113.5 116C113.5 93 124.5 74.5 134.5 55L160 5L202 17.5L180 63.5C179 65.5 178 68 177 70C197.5 75.5 213 94.5 213 117.5C213 144.5 191 166.5 164 166.5C134 166.5 113.5 145 113.5 116ZM0 116C0 93 11 74.5 21 55L46.5 5L88.5 17.5L66.5 63.5C65.5 65.5 64.5 68 63.5 70C84 75.5 99.5 94.5 99.5 117.5C99.5 144.5 77.5 166.5 50.5 166.5C20.5 166.5 0 145 0 116Z" fill="#BFFF00"/>
</svg>
