<svg width="219" height="170" viewBox="0 0 219 170" fill="none" xmlns="http://www.w3.org/2000/svg">
<path d="M122.551 141.183C116.748 132.899 113.5 122.544 113.5 111C113.5 88 124.5 69.5 134.5 50L160 0L202 12.5L180 58.5C179 60.5 178 63 177 65C188.015 67.9553 197.587 74.8082 204.086 84.0851C209.682 92.0732 213 101.858 213 112.5C213 139.5 191 161.5 164 161.5C145.942 161.5 131.326 153.71 122.551 141.183ZM9.05114 141.183C3.24832 132.899 0 122.544 0 111C0 88 11 69.5 21 50L46.5 0L88.5 12.5L66.5 58.5C65.5 60.5 64.5 63 63.5 65C74.5151 67.9553 84.0867 74.8082 90.5857 84.0851C96.1819 92.0732 99.5 101.858 99.5 112.5C99.5 139.5 77.5 161.5 50.5 161.5C32.4419 161.5 17.8259 153.71 9.05114 141.183Z" fill="#759C00"/>
<path d="M169.736 169.691C196.736 169.691 218.736 147.692 218.736 120.692L213 112.5C213 139.5 191 161.5 164 161.5L169.736 169.691Z" fill="#759C00"/>
<path d="M128.287 149.375C137.062 161.901 151.678 169.691 169.736 169.691L164 161.5C145.942 161.5 131.326 153.71 122.551 141.183L128.287 149.375Z" fill="#759C00"/>
<path d="M218.736 120.692C218.736 110.05 215.418 100.265 209.821 92.2765L204.099 84.1045C209.687 92.089 213 101.867 213 112.5L218.736 120.692Z" fill="#759C00"/>
<path d="M119.236 119.192C119.236 130.729 122.48 141.079 128.277 149.36L122.551 141.183C116.748 132.899 113.5 122.544 113.5 111L119.236 119.192Z" fill="#759C00"/>
<path d="M209.821 92.2765C203.322 82.9996 193.751 76.1468 182.736 73.1915L177 65C188.015 67.9553 197.587 74.8082 204.086 84.0851L209.821 92.2765Z" fill="#759C00"/>
<path d="M56.2358 169.691C83.2358 169.691 105.236 147.692 105.236 120.692L99.5 112.5C99.5 139.5 77.5 161.5 50.5 161.5L56.2358 169.691Z" fill="#759C00"/>
<path d="M182.736 73.1915C183.736 71.1915 184.736 68.6915 185.736 66.6915L180 58.5C179 60.5 178 63 177 65L182.736 73.1915Z" fill="#759C00"/>
<path d="M14.7869 149.375C23.5617 161.901 38.1777 169.691 56.2358 169.691L50.5 161.5C32.4419 161.5 17.8259 153.71 9.05114 141.183L14.7869 149.375Z" fill="#759C00"/>
<path d="M185.736 66.6915L207.736 20.6915L202 12.5L180 58.5L185.736 66.6915Z" fill="#759C00"/>
<path d="M140.236 58.1915C130.236 77.6915 119.236 96.1915 119.236 119.192L113.5 111C113.5 88 124.5 69.5 134.5 50L140.236 58.1915Z" fill="#759C00"/>
<path d="M105.236 120.692C105.236 110.05 101.918 100.265 96.3215 92.2765L90.5994 84.1045C96.1873 92.089 99.5 101.867 99.5 112.5L105.236 120.692Z" fill="#759C00"/>
<path d="M207.736 20.6915L165.736 8.19152L160 0L202 12.5L207.736 20.6915Z" fill="#759C00"/>
<path d="M5.73576 119.192C5.73576 130.729 8.98033 141.079 14.7768 149.36L9.05114 141.183C3.24832 132.899 0 122.544 0 111L5.73576 119.192Z" fill="#759C00"/>
<path d="M96.3215 92.2765C89.8224 82.9996 80.2509 76.1468 69.2358 73.1915L63.5 65C74.5151 67.9553 84.0867 74.8082 90.5857 84.0851L96.3215 92.2765Z" fill="#759C00"/>
<path d="M165.736 8.19152L140.236 58.1915L134.5 50L160 0L165.736 8.19152Z" fill="#759C00"/>
<path d="M69.2358 73.1915C70.2358 71.1915 71.2358 68.6915 72.2358 66.6915L66.5 58.5C65.5 60.5 64.5 63 63.5 65L69.2358 73.1915Z" fill="#759C00"/>
<path d="M72.2358 66.6915L94.2358 20.6915L88.5 12.5L66.5 58.5L72.2358 66.6915Z" fill="#759C00"/>
<path d="M26.7358 58.1915C16.7358 77.6915 5.73576 96.1915 5.73576 119.192L0 111C0 88 11 69.5 21 50L26.7358 58.1915Z" fill="#759C00"/>
<path d="M94.2358 20.6915L52.2358 8.19152L46.5 0L88.5 12.5L94.2358 20.6915Z" fill="#759C00"/>
<path d="M52.2358 8.19152L26.7358 58.1915L21 50L46.5 0L52.2358 8.19152Z" fill="#759C00"/>
<path d="M119.234 119.191C119.234 96.1914 130.234 77.6914 140.234 58.1914L165.734 8.19141L207.734 20.6914L185.734 66.6914C184.734 68.6914 183.734 71.1914 182.734 73.1914C203.234 78.6914 218.734 97.6914 218.734 120.691C218.734 147.691 196.734 169.691 169.734 169.691C139.734 169.691 119.234 148.191 119.234 119.191ZM5.73438 119.191C5.73438 96.1914 16.7344 77.6914 26.7344 58.1914L52.2344 8.19141L94.2344 20.6914L72.2344 66.6914C71.2344 68.6914 70.2344 71.1914 69.2344 73.1914C89.7344 78.6914 105.234 97.6914 105.234 120.691C105.234 147.691 83.2344 169.691 56.2344 169.691C26.2344 169.691 5.73438 148.191 5.73438 119.191Z" fill="#BFFF00"/>
</svg>
