<svg width="572" height="98" viewBox="0 0 572 98" fill="none" xmlns="http://www.w3.org/2000/svg">
<path d="M0 30.577H28.0695V36.5901H6.63461V95.953H0V30.577Z" fill="white"/>
<path d="M33.0205 63.201C33.0205 43.4987 47.3105 28.53 67.0867 28.53C81.1214 28.53 92.0941 36.3342 95.1562 46.953H95.4114C95.2838 44.6501 95.1562 42.4752 95.1562 39.1488V30.577H101.28V95.953H95.1562V86.3577C95.1562 83.4152 95.2838 81.1123 95.4114 78.6815H95.1562C91.9665 90.1958 80.7387 97.8721 66.9591 98C46.8001 98 33.0205 83.0313 33.0205 63.201ZM67.3419 91.859C83.5456 91.859 95.0286 79.577 95.0286 63.201C95.0286 46.8251 83.5456 34.5431 67.3419 34.5431C51.6485 34.5431 39.6551 46.8251 39.6551 63.201C39.6551 79.577 51.6485 91.859 67.3419 91.859Z" fill="white"/>
<path d="M117.872 63.201C117.872 43.3708 131.907 28.53 151.811 28.53C164.187 28.53 175.925 35.0548 179.752 45.9295H180.135C179.88 43.7546 179.752 41.5796 179.752 38.2533V0H186.387V95.953H180.135V86.8695C180.135 83.799 180.263 81.4961 180.518 79.1932H180.135C176.18 91.2193 164.697 98 151.811 98C131.779 98 117.872 83.1593 117.872 63.201ZM152.448 91.859C168.525 91.859 180.008 79.577 180.008 63.201C180.008 46.8251 168.525 34.5431 152.448 34.5431C136.627 34.5431 124.762 46.8251 124.762 63.201C124.762 79.577 136.627 91.859 152.448 91.859Z" fill="white"/>
<path d="M202.848 63.201C202.848 43.4987 217.138 28.53 236.914 28.53C250.949 28.53 261.921 36.3342 264.984 46.953H265.239C265.111 44.6501 264.984 42.4752 264.984 39.1488V30.577H271.108V95.953H264.984V86.3577C264.984 83.4152 265.111 81.1123 265.239 78.6815H264.984C261.794 90.1958 250.566 97.8721 236.787 98C216.628 98 202.848 83.0313 202.848 63.201ZM237.169 91.859C253.373 91.859 264.856 79.577 264.856 63.201C264.856 46.8251 253.373 34.5431 237.169 34.5431C221.476 34.5431 209.483 46.8251 209.483 63.201C209.483 79.577 221.476 91.859 237.169 91.859Z" fill="white"/>
<path d="M292.931 30.577H321V36.5901H299.565V95.953H292.931V30.577Z" fill="white"/>
<path d="M0 30.577H28.0695V36.5901H6.63461V95.953H0V30.577Z" fill="white"/>
<path d="M33.0205 63.201C33.0205 43.4987 47.3105 28.53 67.0867 28.53C81.1214 28.53 92.0941 36.3342 95.1562 46.953H95.4114C95.2838 44.6501 95.1562 42.4752 95.1562 39.1488V30.577H101.28V95.953H95.1562V86.3577C95.1562 83.4152 95.2838 81.1123 95.4114 78.6815H95.1562C91.9665 90.1958 80.7387 97.8721 66.9591 98C46.8001 98 33.0205 83.0313 33.0205 63.201ZM67.3419 91.859C83.5456 91.859 95.0286 79.577 95.0286 63.201C95.0286 46.8251 83.5456 34.5431 67.3419 34.5431C51.6485 34.5431 39.6551 46.8251 39.6551 63.201C39.6551 79.577 51.6485 91.859 67.3419 91.859Z" fill="white"/>
<path d="M117.872 63.201C117.872 43.3708 131.907 28.53 151.811 28.53C164.187 28.53 175.925 35.0548 179.752 45.9295H180.135C179.88 43.7546 179.752 41.5796 179.752 38.2533V0H186.387V95.953H180.135V86.8695C180.135 83.799 180.263 81.4961 180.518 79.1932H180.135C176.18 91.2193 164.697 98 151.811 98C131.779 98 117.872 83.1593 117.872 63.201ZM152.448 91.859C168.525 91.859 180.008 79.577 180.008 63.201C180.008 46.8251 168.525 34.5431 152.448 34.5431C136.627 34.5431 124.762 46.8251 124.762 63.201C124.762 79.577 136.627 91.859 152.448 91.859Z" fill="white"/>
<path d="M202.848 63.201C202.848 43.4987 217.138 28.53 236.914 28.53C250.949 28.53 261.921 36.3342 264.984 46.953H265.239C265.111 44.6501 264.984 42.4752 264.984 39.1488V30.577H271.108V95.953H264.984V86.3577C264.984 83.4152 265.111 81.1123 265.239 78.6815H264.984C261.794 90.1958 250.566 97.8721 236.787 98C216.628 98 202.848 83.0313 202.848 63.201ZM237.169 91.859C253.373 91.859 264.856 79.577 264.856 63.201C264.856 46.8251 253.373 34.5431 237.169 34.5431C221.476 34.5431 209.483 46.8251 209.483 63.201C209.483 79.577 221.476 91.859 237.169 91.859Z" fill="white"/>
<path d="M292.931 30.577H321V36.5901H299.565V95.953H292.931V30.577Z" fill="white"/>
<path d="M359 96H384.786V50.944H396.39V96H422.047V29.056H384.786V0H359V96Z" fill="white"/>
<path d="M496.759 96H434.099V29.056H459.885V73.856H470.973V29.056H496.759V96Z" fill="white"/>
<path fill-rule="evenodd" clip-rule="evenodd" d="M508.953 96H572V29.056H534.739V0H508.953V96ZM546.395 50.9998H534.308V72.9998H546.395V50.9998Z" fill="white"/>
</svg>
