<svg width="23" height="22" viewBox="0 0 23 22" fill="none" xmlns="http://www.w3.org/2000/svg">
<path d="M9.16204 5.706e-07C7.80632 0.000725195 6.46968 0.319492 5.25954 0.93068C4.04941 1.54187 2.99954 2.42843 2.19431 3.51911C1.38908 4.60979 0.850958 5.87417 0.623189 7.21061C0.39542 8.54706 0.484359 9.91831 0.882857 11.2141C1.28136 12.51 1.9783 13.6942 2.91767 14.6718C3.85704 15.6493 5.01264 16.3928 6.29159 16.8425C7.57053 17.2923 8.93715 17.4357 10.2816 17.2613C11.6261 17.0869 12.9108 16.5995 14.0327 15.8383L19.3887 21.19C19.5375 21.3497 19.7169 21.4777 19.9162 21.5665C20.1155 21.6553 20.3307 21.7031 20.5489 21.7069C20.7671 21.7108 20.9838 21.6707 21.1862 21.5889C21.3885 21.5072 21.5723 21.3856 21.7266 21.2312C21.8809 21.0769 22.0026 20.8931 22.0843 20.6908C22.166 20.4885 22.2062 20.2717 22.2023 20.0535C22.1985 19.8353 22.1507 19.6202 22.0619 19.4208C21.9731 19.2215 21.845 19.0421 21.6854 18.8933L16.3337 13.5373C17.2191 12.2343 17.7325 10.7145 17.8188 9.14146C17.9051 7.56843 17.561 6.00162 16.8235 4.6095C16.086 3.21738 14.983 2.05262 13.6331 1.24045C12.2832 0.428284 10.7374 -0.000571006 9.16204 5.706e-07ZM3.74537 8.66667C3.74537 7.23008 4.31605 5.85233 5.33187 4.83651C6.3477 3.82068 7.72545 3.25 9.16204 3.25C10.5986 3.25 11.9764 3.82068 12.9922 4.83651C14.008 5.85233 14.5787 7.23008 14.5787 8.66667C14.5787 10.1033 14.008 11.481 12.9922 12.4968C11.9764 13.5127 10.5986 14.0833 9.16204 14.0833C7.72545 14.0833 6.3477 13.5127 5.33187 12.4968C4.31605 11.481 3.74537 10.1033 3.74537 8.66667Z" fill="#505050"/>
</svg>
