<svg width="26" height="25" viewBox="0 0 26 25" fill="none" xmlns="http://www.w3.org/2000/svg">
<path d="M13.0502 0C6.12249 0 0.5 5.62249 0.5 12.5502C0.5 19.4779 6.12249 25.1004 13.0502 25.1004C19.9779 25.1004 25.6004 19.4779 25.6004 12.5502C25.5 5.62249 19.8775 0 13.0502 0ZM18.0703 18.3735C17.8695 18.3735 17.7691 18.2731 17.5683 18.1727C15.761 17.0683 13.4518 16.4659 11.1426 16.4659C9.83735 16.4659 8.43173 16.6667 7.22691 16.8675C6.9257 17.0683 6.6245 17.0683 6.5241 17.0683C6.02209 17.0683 5.72088 16.6667 5.72088 16.2651C5.72088 15.7631 6.02209 15.4618 6.42369 15.3614C7.92972 15.0602 9.53614 14.759 11.1426 14.759C13.8534 14.759 16.3635 15.3614 18.3715 16.6667C18.6727 16.8675 18.8735 17.0683 18.8735 17.4699C18.8735 18.0723 18.4719 18.3735 18.0703 18.3735ZM19.4759 15.0602C19.1747 15.0602 19.0743 14.9598 18.8735 14.8594C16.8655 13.6546 14.0542 12.8514 10.9418 12.8514C9.33534 12.8514 8.03012 13.0522 6.8253 13.3534C6.6245 13.4538 6.42369 13.4538 6.22289 13.4538C5.72088 13.4538 5.21888 13.0522 5.21888 12.4498C5.21888 11.9478 5.52008 11.5462 6.02209 11.4458C7.42771 11.0442 8.83333 10.743 10.9418 10.743C14.255 10.743 17.3675 11.5462 19.8775 13.0522C20.2791 13.253 20.4799 13.5542 20.4799 14.0562C20.3795 14.6586 19.9779 15.0602 19.4759 15.0602ZM20.9819 11.245C20.6807 11.245 20.5803 11.1446 20.3795 11.0442C18.0703 9.63855 14.5562 8.93574 11.243 8.93574C9.53614 8.93574 7.82932 9.13655 6.22289 9.53815C6.02209 9.63855 5.72088 9.63855 5.52008 9.63855C4.81727 9.63855 4.31526 9.13655 4.31526 8.43373C4.31526 7.73092 4.71687 7.32932 5.21888 7.22892C7.0261 6.72691 9.03414 6.4257 11.1426 6.4257C14.8574 6.4257 18.6727 7.22892 21.4839 8.83534C21.8855 9.03614 22.0863 9.33735 22.0863 9.93976C22.1867 10.743 21.5843 11.245 20.9819 11.245Z" fill="#D9D9D9"/>
</svg>
