<?xml version="1.0" encoding="UTF-8"?>
<svg id="Layer_2" data-name="Layer 2" xmlns="http://www.w3.org/2000/svg" viewBox="0 0 89.49 62.65">
  <defs>
    <style>
      .cls-1 {
        fill: #d9d9d9;
      }
    </style>
  </defs>
  <g id="Layer_1-2" data-name="Layer 1">
    <path class="cls-1" d="M87.62,9.78c-1.03-3.85-4.06-6.88-7.91-7.91-6.98-1.87-34.96-1.87-34.96-1.87,0,0-27.99,0-34.96,1.87-3.85,1.03-6.88,4.06-7.91,7.91C0,16.76,0,31.32,0,31.32c0,0,0,14.56,1.87,21.54,1.03,3.85,4.06,6.88,7.91,7.91,6.98,1.87,34.96,1.87,34.96,1.87,0,0,27.99,0,34.96-1.87,3.85-1.03,6.88-4.06,7.91-7.91,1.87-6.98,1.87-21.54,1.87-21.54,0,0,0-14.56-1.87-21.54ZM35.8,44.75v-26.85l23.25,13.42-23.25,13.42Z"/>
  </g>
</svg>