<svg width="34" height="23" viewBox="0 0 34 23" fill="none" xmlns="http://www.w3.org/2000/svg">
<path d="M32.7452 3.59042C32.3654 2.17702 31.2481 1.06464 29.8284 0.686512C27.2545 0 16.9367 0 16.9367 0C16.9367 0 6.61517 0 4.04494 0.686512C2.62523 1.06464 1.5079 2.17702 1.12808 3.59042C0.434814 6.15291 0.434814 11.4982 0.434814 11.4982C0.434814 11.4982 0.434814 16.8434 1.12439 19.4059C1.50421 20.8193 2.62154 21.9317 4.04125 22.3098C6.61517 22.9963 16.933 22.9963 16.933 22.9963C16.933 22.9963 27.2545 22.9963 29.8247 22.3098C31.2444 21.9317 32.3617 20.8193 32.7416 19.4059C33.4311 16.8434 33.4311 11.4982 33.4311 11.4982C33.4311 11.4982 33.4311 6.15291 32.7416 3.59042H32.7452ZM13.6363 16.4286V6.57143L22.2099 11.4982L13.6363 16.4249V16.4286Z" fill="white"/>
</svg>
